%FSLAX44Y44*%
%MOMM*%
G71*
G01*
G75*
%ADD10R,0.4064X2.1082*%
%ADD11R,4.1000X2.1082*%
%ADD12R,1.2000X1.4000*%
%ADD13R,1.4500X0.5500*%
%ADD14R,1.3000X1.5000*%
%ADD15R,1.4000X1.2000*%
%ADD16O,0.2500X1.5500*%
%ADD17O,1.5500X0.2500*%
%ADD18R,0.4064X1.3208*%
%ADD19R,1.8000X1.6000*%
%ADD20R,2.0000X1.1000*%
%ADD21R,2.0000X2.0000*%
%ADD22R,1.1000X2.0000*%
%ADD23R,2.1000X3.2000*%
%ADD24R,2.1000X0.9000*%
%ADD25R,1.0000X0.6000*%
%ADD26O,1.7000X0.6000*%
%ADD27C,0.2000*%
%ADD28C,0.5000*%
%ADD29C,0.4000*%
%ADD30C,1.0000*%
%ADD31C,2.5000*%
%ADD32C,2.0000*%
%ADD33R,1.5748X1.5748*%
%ADD34C,1.5748*%
%ADD35C,2.8448*%
%ADD36O,1.5000X2.2000*%
%ADD37O,2.2000X1.5000*%
%ADD38O,0.8500X2.0000*%
%ADD39O,1.0500X1.2500*%
%ADD40R,1.6900X1.6900*%
%ADD41C,1.6900*%
%ADD42C,4.7600*%
%ADD43O,0.8000X1.4220*%
%ADD44C,1.5000*%
%ADD45O,2.0000X4.5000*%
%ADD46O,4.5000X2.0000*%
%ADD47C,4.8000*%
%ADD48C,0.4000*%
%ADD49C,0.5500*%
%ADD50C,0.2540*%
D10*
X4292300Y2368999D02*
D03*
X4298650D02*
D03*
X4305000D02*
D03*
X4311350D02*
D03*
X4317700D02*
D03*
D11*
X4305000Y2399480D02*
D03*
D12*
X4294000Y2167000D02*
D03*
X4276000D02*
D03*
X3767000Y2022000D02*
D03*
X3785000D02*
D03*
X4237000Y2266000D02*
D03*
X4255000D02*
D03*
X4185000D02*
D03*
X4203000D02*
D03*
X3832000Y2049000D02*
D03*
X3814000D02*
D03*
X4011000Y1733000D02*
D03*
X4029000D02*
D03*
X4015000Y2257000D02*
D03*
X3997000D02*
D03*
X4276000Y2144000D02*
D03*
X4294000D02*
D03*
X4276000Y2190000D02*
D03*
X4294000D02*
D03*
X4276000Y2065000D02*
D03*
X4294000D02*
D03*
X4276000Y2111000D02*
D03*
X4294000D02*
D03*
X4185000Y2292000D02*
D03*
X4203000D02*
D03*
X4237000D02*
D03*
X4255000D02*
D03*
X4294000Y2088000D02*
D03*
X4276000D02*
D03*
X4315000Y2275000D02*
D03*
X4297000D02*
D03*
X4515500Y1701586D02*
D03*
X4497500D02*
D03*
X4126254Y1700586D02*
D03*
X4108254D02*
D03*
X3814000Y2073000D02*
D03*
X3832000D02*
D03*
X4203000Y2240000D02*
D03*
X4185000D02*
D03*
X4255000D02*
D03*
X4237000D02*
D03*
X3807000Y1745000D02*
D03*
X3825000D02*
D03*
X3827000Y2151000D02*
D03*
X3845000D02*
D03*
X3814000Y2022000D02*
D03*
X3832000D02*
D03*
X3767000Y2073000D02*
D03*
X3785000D02*
D03*
X4290000Y1970000D02*
D03*
X4308000D02*
D03*
X4236000D02*
D03*
X4254000D02*
D03*
X4368000Y1970000D02*
D03*
X4350000D02*
D03*
X4290000Y2005000D02*
D03*
X4308000D02*
D03*
X3921000Y2212000D02*
D03*
X3939000D02*
D03*
X3892000Y2264000D02*
D03*
X3874000D02*
D03*
X3845000D02*
D03*
X3827000D02*
D03*
X3921000Y2238000D02*
D03*
X3939000D02*
D03*
X3892000Y2238000D02*
D03*
X3874000D02*
D03*
X3845000D02*
D03*
X3827000D02*
D03*
X3920000Y2264000D02*
D03*
X3938000D02*
D03*
X3892000Y2212000D02*
D03*
X3874000D02*
D03*
X3845000D02*
D03*
X3827000D02*
D03*
D13*
X3765250Y2047000D02*
D03*
X3788750D02*
D03*
D14*
X4516000Y1676586D02*
D03*
X4497000D02*
D03*
X4107754Y1675585D02*
D03*
X4126754D02*
D03*
D15*
X3875000Y1854000D02*
D03*
Y1836000D02*
D03*
X3846000Y1854000D02*
D03*
Y1836000D02*
D03*
X3875000Y1908000D02*
D03*
Y1890000D02*
D03*
X3846000Y1908000D02*
D03*
Y1890000D02*
D03*
X4169000Y2018000D02*
D03*
Y2036000D02*
D03*
D16*
X4118500Y1929750D02*
D03*
X4113500D02*
D03*
X4108500D02*
D03*
X4103500D02*
D03*
X4098500D02*
D03*
X4093500D02*
D03*
X4088500D02*
D03*
X4083500D02*
D03*
X4078500D02*
D03*
X4073500D02*
D03*
X4068500D02*
D03*
X4063500D02*
D03*
X4058500D02*
D03*
X4053500D02*
D03*
X4048500D02*
D03*
X4043500D02*
D03*
X4038500D02*
D03*
X4033500D02*
D03*
X4028499D02*
D03*
X4023500D02*
D03*
X4018499D02*
D03*
X4013500D02*
D03*
X4008500D02*
D03*
X4003500D02*
D03*
X3998500D02*
D03*
X3993500D02*
D03*
X3988500D02*
D03*
X3983500D02*
D03*
X3978500D02*
D03*
X3973500D02*
D03*
X3968500D02*
D03*
X3963500D02*
D03*
X3958500D02*
D03*
X3953500D02*
D03*
X3948500D02*
D03*
X3943500D02*
D03*
Y2140250D02*
D03*
X3948500D02*
D03*
X3953500D02*
D03*
X3958500D02*
D03*
X3963500D02*
D03*
X3968500D02*
D03*
X3973500D02*
D03*
X3978500D02*
D03*
X3983500D02*
D03*
X3988500D02*
D03*
X3993500D02*
D03*
X3998500D02*
D03*
X4003500D02*
D03*
X4008500D02*
D03*
X4013500D02*
D03*
X4018499D02*
D03*
X4023500D02*
D03*
X4028499D02*
D03*
X4033500D02*
D03*
X4038500D02*
D03*
X4043500D02*
D03*
X4048500D02*
D03*
X4053500D02*
D03*
X4058500D02*
D03*
X4063500D02*
D03*
X4068500D02*
D03*
X4073500D02*
D03*
X4078500D02*
D03*
X4083500D02*
D03*
X4088500D02*
D03*
X4093500D02*
D03*
X4098500D02*
D03*
X4103500D02*
D03*
X4108500D02*
D03*
X4113500D02*
D03*
X4118500D02*
D03*
D17*
X3925750Y1947500D02*
D03*
Y1952500D02*
D03*
Y1957500D02*
D03*
Y1962500D02*
D03*
Y1967500D02*
D03*
Y1972500D02*
D03*
Y1977500D02*
D03*
Y1982500D02*
D03*
Y1987500D02*
D03*
Y1992500D02*
D03*
Y1997500D02*
D03*
Y2002500D02*
D03*
Y2007500D02*
D03*
Y2012500D02*
D03*
Y2017500D02*
D03*
Y2022500D02*
D03*
Y2027500D02*
D03*
Y2032500D02*
D03*
Y2037500D02*
D03*
Y2042500D02*
D03*
Y2047500D02*
D03*
Y2052500D02*
D03*
Y2057500D02*
D03*
Y2062500D02*
D03*
Y2067500D02*
D03*
Y2072500D02*
D03*
Y2077500D02*
D03*
Y2082500D02*
D03*
Y2087500D02*
D03*
Y2092500D02*
D03*
Y2097500D02*
D03*
Y2102500D02*
D03*
Y2107500D02*
D03*
Y2112500D02*
D03*
Y2117500D02*
D03*
Y2122500D02*
D03*
X4136250D02*
D03*
Y2117500D02*
D03*
Y2112500D02*
D03*
Y2107500D02*
D03*
Y2102500D02*
D03*
Y2097500D02*
D03*
Y2092500D02*
D03*
Y2087500D02*
D03*
Y2082500D02*
D03*
Y2077500D02*
D03*
Y2072500D02*
D03*
Y2067500D02*
D03*
Y2062500D02*
D03*
Y2057500D02*
D03*
Y2052500D02*
D03*
Y2047500D02*
D03*
Y2042500D02*
D03*
Y2037500D02*
D03*
Y2032500D02*
D03*
Y2027500D02*
D03*
Y2022500D02*
D03*
Y2017500D02*
D03*
Y2012500D02*
D03*
Y2007500D02*
D03*
Y2002500D02*
D03*
Y1997500D02*
D03*
Y1992500D02*
D03*
Y1987500D02*
D03*
Y1982500D02*
D03*
Y1977500D02*
D03*
Y1972500D02*
D03*
Y1967500D02*
D03*
Y1962500D02*
D03*
Y1957500D02*
D03*
Y1952500D02*
D03*
Y1947500D02*
D03*
D18*
X4105000Y1758834D02*
D03*
X4097000D02*
D03*
X4089000D02*
D03*
X4081000D02*
D03*
X4073000D02*
D03*
X4065000D02*
D03*
X4057000D02*
D03*
X4049000D02*
D03*
X4041000D02*
D03*
X4033000D02*
D03*
X4025000D02*
D03*
X4016936D02*
D03*
X4008808D02*
D03*
X4000934D02*
D03*
X3992806D02*
D03*
X3984932D02*
D03*
X3976804D02*
D03*
X3968930D02*
D03*
X3960802D02*
D03*
X3952928D02*
D03*
X3944800D02*
D03*
X3936926D02*
D03*
Y1875000D02*
D03*
X3944800D02*
D03*
X3952928D02*
D03*
X3960802D02*
D03*
X3968930D02*
D03*
X3976804D02*
D03*
X3984932D02*
D03*
X3992806D02*
D03*
X4000934D02*
D03*
X4008808D02*
D03*
X4016936D02*
D03*
X4025000D02*
D03*
X4033000D02*
D03*
X4041000D02*
D03*
X4049000D02*
D03*
X4057000D02*
D03*
X4065000D02*
D03*
X4073000D02*
D03*
X4081000D02*
D03*
X4089000D02*
D03*
X4097000D02*
D03*
X4105000D02*
D03*
D19*
X4077200Y2242000D02*
D03*
Y2200000D02*
D03*
X4128000Y2242000D02*
D03*
Y2200000D02*
D03*
D20*
X4171750Y1702069D02*
D03*
Y1728069D02*
D03*
Y1817569D02*
D03*
D21*
X4452000Y1676569D02*
D03*
X4167750Y1677569D02*
D03*
X4452000Y1864069D02*
D03*
X4167750D02*
D03*
D22*
X4273750Y1931569D02*
D03*
X4298750D02*
D03*
X4323750D02*
D03*
X4348750D02*
D03*
X4373750D02*
D03*
X4398750D02*
D03*
X4248500D02*
D03*
X4224000D02*
D03*
X4207000D02*
D03*
D23*
X4388500Y2088000D02*
D03*
X4387500Y2167000D02*
D03*
D24*
X4331500Y2065000D02*
D03*
Y2088000D02*
D03*
Y2111000D02*
D03*
X4330500Y2190000D02*
D03*
Y2167000D02*
D03*
Y2144000D02*
D03*
D25*
X3853000Y2102500D02*
D03*
Y2121500D02*
D03*
X3833000Y2112000D02*
D03*
D26*
X3975500Y2232050D02*
D03*
Y2219350D02*
D03*
Y2206650D02*
D03*
Y2193950D02*
D03*
X4040640Y2232050D02*
D03*
Y2219350D02*
D03*
Y2206650D02*
D03*
Y2193950D02*
D03*
D31*
X3889000Y1690000D02*
D03*
X3959000D02*
D03*
X3997000D02*
D03*
X4067000D02*
D03*
X3851000D02*
D03*
X3781000D02*
D03*
D32*
X3901500Y1665000D02*
D03*
X3946500D02*
D03*
X4009500D02*
D03*
X4054500D02*
D03*
X3838500D02*
D03*
X3793500D02*
D03*
D33*
X3785090Y1838046D02*
D03*
D34*
Y1863954D02*
D03*
Y1817472D02*
D03*
Y1884528D02*
D03*
X3809982Y1817472D02*
D03*
Y1884528D02*
D03*
D35*
X3755118Y1783436D02*
D03*
X3746990Y1851000D02*
D03*
X3755118Y1918564D02*
D03*
D36*
X3734000Y2156000D02*
D03*
X4137000Y2334962D02*
D03*
X4162000D02*
D03*
X4212146D02*
D03*
X4237038D02*
D03*
D37*
X3784038Y2206038D02*
D03*
Y2181146D02*
D03*
Y2131000D02*
D03*
Y2106000D02*
D03*
X4187000Y2385000D02*
D03*
D38*
X4340560Y2399480D02*
D03*
X4269440D02*
D03*
D39*
X4329130Y2368999D02*
D03*
X4280870D02*
D03*
D40*
X4505800Y1817600D02*
D03*
X4505800Y2137600D02*
D03*
D41*
X4534200Y1831450D02*
D03*
X4505800Y1845300D02*
D03*
X4534200Y1859150D02*
D03*
X4505800Y1873000D02*
D03*
X4534200Y1886850D02*
D03*
X4505800Y1900700D02*
D03*
X4534200Y1914550D02*
D03*
X4505800Y1928400D02*
D03*
X4534200Y2151450D02*
D03*
X4505800Y2165300D02*
D03*
X4534200Y2179150D02*
D03*
X4505800Y2193000D02*
D03*
X4534200Y2206850D02*
D03*
X4505800Y2220700D02*
D03*
X4534200Y2234550D02*
D03*
X4505800Y2248400D02*
D03*
X3993102Y2351400D02*
D03*
X3970242D02*
D03*
X3947382D02*
D03*
X3924522D02*
D03*
X3901662D02*
D03*
X3981672Y2326000D02*
D03*
X3958812D02*
D03*
X3935952D02*
D03*
X3913092D02*
D03*
X3890232D02*
D03*
X3993102Y2300600D02*
D03*
X3970242D02*
D03*
X3947382D02*
D03*
X3924522D02*
D03*
X3901662D02*
D03*
D42*
X4520000Y1997950D02*
D03*
Y1748050D02*
D03*
X4520000Y2317950D02*
D03*
Y2068050D02*
D03*
D43*
X3758750Y1977572D02*
D03*
X3771250D02*
D03*
X3783750D02*
D03*
X3796350D02*
D03*
X3808796D02*
D03*
X3821496D02*
D03*
D44*
X4294600Y2330000D02*
D03*
X4320000D02*
D03*
D45*
X4370000Y2315000D02*
D03*
D46*
X4420000Y2345000D02*
D03*
Y2283000D02*
D03*
D47*
X4069810Y2326000D02*
D03*
X3819874D02*
D03*
M02*
