M48
;Layer_Color=9474304
;FILE_FORMAT=4:4
METRIC,LZ
;TYPE=PLATED
T3F00S00C0.5000
T5F00S00C0.6500
T6F00S00C0.8000
;TYPE=NON_PLATED
%
G90
G05
T03
G00X0434056Y02405229
M15
G01Y0239373
M16
G00X0426944Y02405229
M15
G01Y0239373
M16
T05
G00X0432913Y0237
M15
G01Y02368
M16
G00X0428087Y0237
M15
G01Y02368
M16
T06
G00X04409Y02283
M15
G01X04431
M16
G00X04409Y02345
M15
G01X04431
M16
G00X0437Y02304
M15
G01Y02326
M16
G00X04237038Y02338462
M15
G01Y02331462
M16
G00X04212146Y02338462
M15
G01Y02331462
M16
G00X04162Y02338462
M15
G01Y02331462
M16
G00X04137Y02338462
M15
G01Y02331462
M16
G00X03780538Y02206038
M15
G01X03787538
M16
G00X03780538Y02181146
M15
G01X03787538
M16
G00X03780538Y02131
M15
G01X03787538
M16
G00X03780538Y02106
M15
G01X03787538
M16
G00X03734Y021525
M15
G01Y021595
M16
G00X041835Y02385
M15
G01X041905
M16
M17
M30
