%FSLAX44Y44*%
%MOMM*%
G71*
G01*
G75*
G04 Layer_Color=32896*
%ADD10R,0.4064X2.1082*%
%ADD11R,4.1000X2.1082*%
%ADD12R,1.2000X1.4000*%
%ADD13R,1.4500X0.5500*%
%ADD14R,1.3000X1.5000*%
%ADD15R,1.4000X1.2000*%
%ADD16O,0.2500X1.5500*%
%ADD17O,1.5500X0.2500*%
%ADD18R,0.4064X1.3208*%
%ADD19R,1.8000X1.6000*%
%ADD20R,2.0000X1.1000*%
%ADD21R,2.0000X2.0000*%
%ADD22R,1.1000X2.0000*%
%ADD23R,2.1000X3.2000*%
%ADD24R,2.1000X0.9000*%
%ADD25R,1.0000X0.6000*%
%ADD26O,1.7000X0.6000*%
%ADD27C,0.2000*%
%ADD28C,0.5000*%
%ADD29C,0.4000*%
%ADD30C,1.0000*%
%ADD31C,2.5000*%
%ADD32C,2.0000*%
%ADD33R,1.5748X1.5748*%
%ADD34C,1.5748*%
%ADD35C,2.8448*%
%ADD36O,1.5000X2.2000*%
%ADD37O,2.2000X1.5000*%
%ADD38O,0.8500X2.0000*%
%ADD39O,1.0500X1.2500*%
%ADD40R,1.6900X1.6900*%
%ADD41C,1.6900*%
%ADD42C,4.7600*%
%ADD43O,0.8000X1.4220*%
%ADD44C,1.5000*%
%ADD45O,2.0000X4.5000*%
%ADD46O,4.5000X2.0000*%
%ADD47C,4.8000*%
%ADD48C,0.4000*%
%ADD49C,0.5500*%
%ADD50C,0.2540*%
%ADD51C,0.6000*%
%ADD52C,0.2500*%
%ADD53C,0.2032*%
%ADD54C,0.1000*%
%ADD55C,0.0254*%
%ADD56C,0.1500*%
%ADD57C,0.1270*%
%ADD58R,9.1186X0.3810*%
%ADD59R,0.6350X0.6350*%
%ADD60R,0.6064X2.3082*%
%ADD61R,4.3000X2.3082*%
%ADD62R,1.4000X1.6000*%
%ADD63R,1.6500X0.7500*%
%ADD64R,1.5000X1.7000*%
%ADD65R,1.6000X1.4000*%
%ADD66O,0.4500X1.7500*%
%ADD67O,1.7500X0.4500*%
%ADD68R,0.6064X1.5208*%
%ADD69R,2.0000X1.8000*%
%ADD70R,2.2000X1.3000*%
%ADD71R,2.2000X2.2000*%
%ADD72R,1.3000X2.2000*%
%ADD73R,2.3000X3.4000*%
%ADD74R,2.3000X1.1000*%
%ADD75R,1.2000X0.8000*%
%ADD76O,1.9000X0.8000*%
%ADD77C,2.7000*%
%ADD78C,2.2000*%
%ADD79R,1.7748X1.7748*%
%ADD80C,1.7748*%
%ADD81C,3.0448*%
%ADD82C,0.2000*%
%ADD83O,1.7000X2.4000*%
%ADD84O,2.4000X1.7000*%
%ADD85O,1.0500X2.2000*%
%ADD86O,1.2500X1.4500*%
%ADD87R,1.8900X1.8900*%
%ADD88C,1.8900*%
%ADD89C,4.9600*%
%ADD90O,1.0000X1.6220*%
%ADD91C,1.7000*%
%ADD92O,2.2000X4.7000*%
%ADD93O,4.7000X2.2000*%
%ADD94C,5.0000*%
%ADD95C,0.6000*%
%ADD96C,0.7500*%
D27*
X4035460Y2111405D02*
X4037126Y2113071D01*
X4040458D01*
X4042124Y2111405D01*
Y2104740D01*
X4040458Y2103074D01*
X4037126D01*
X4035460Y2104740D01*
X4032127D02*
X4030461Y2103074D01*
X4027129D01*
X4025463Y2104740D01*
Y2111405D01*
X4027129Y2113071D01*
X4030461D01*
X4032127Y2111405D01*
Y2109738D01*
X4030461Y2108072D01*
X4025463D01*
X4035237Y2031425D02*
X4036904Y2033091D01*
X4040236D01*
X4041902Y2031425D01*
Y2024760D01*
X4040236Y2023094D01*
X4036904D01*
X4035237Y2024760D01*
X4031905Y2023094D02*
X4028573D01*
X4030239D01*
Y2033091D01*
X4031905Y2031425D01*
X4023575D02*
X4021908Y2033091D01*
X4018576D01*
X4016910Y2031425D01*
Y2024760D01*
X4018576Y2023094D01*
X4021908D01*
X4023575Y2024760D01*
Y2031425D01*
X4004282Y2063429D02*
X4005948Y2065095D01*
X4009280D01*
X4010946Y2063429D01*
Y2056764D01*
X4009280Y2055098D01*
X4005948D01*
X4004282Y2056764D01*
X4000949Y2055098D02*
X3997617D01*
X3999283D01*
Y2065095D01*
X4000949Y2063429D01*
X3987620Y2055098D02*
Y2065095D01*
X3992619Y2060096D01*
X3985954D01*
X4080433Y2063429D02*
X4082100Y2065095D01*
X4085432D01*
X4087098Y2063429D01*
Y2056764D01*
X4085432Y2055098D01*
X4082100D01*
X4080433Y2056764D01*
X4077101Y2055098D02*
X4073769D01*
X4075435D01*
Y2065095D01*
X4077101Y2063429D01*
X4062106Y2065095D02*
X4068771D01*
Y2060096D01*
X4065439Y2061763D01*
X4063772D01*
X4062106Y2060096D01*
Y2056764D01*
X4063772Y2055098D01*
X4067104D01*
X4068771Y2056764D01*
D54*
X4043500Y2060500D02*
Y2095500D01*
X4024500Y2060500D02*
X4043500D01*
X4024500D02*
Y2095500D01*
X4043500D01*
X4024500Y1980500D02*
Y2015500D01*
X4043500D01*
Y1980500D02*
Y2015500D01*
X4024500Y1980500D02*
X4043500D01*
X3977500Y2047500D02*
X4012500D01*
Y2028500D02*
Y2047500D01*
X3977500Y2028500D02*
X4012500D01*
X3977500D02*
Y2047500D01*
X4053500Y2028500D02*
X4088500D01*
X4053500D02*
Y2047500D01*
X4088500D01*
Y2028500D02*
Y2047500D01*
M02*
