M48
;Layer_Color=9474304
;FILE_FORMAT=4:4
METRIC,LZ
;TYPE=PLATED
T1F00S00C0.2000
T2F00S00C0.3000
T4F00S00C0.6500
T7F00S00C0.8890
T8F00S00C0.9000
T9F00S00C1.0000
T10F00S00C1.0900
T11F00S00C1.3000
T12F00S00C2.3114
T13F00S00C3.0480
T14F00S00C3.1000
T15F00S00C3.2600
;TYPE=NON_PLATED
T16F00S00C3.0000
%
T01
X03934Y01927
X03918Y01931
X03945Y01952
X03954Y01955
X03821Y01937
X038Y01946
X03975Y01948
X03984Y01948
X03993Y01947
X04029Y01948
X04053Y01947
X04088478Y01947
X04095Y01947
X04102Y01949
X0411Y01949
X04117Y01975
X04073Y01975
X04044Y01976
X04023Y01975
X04008Y01976
X03993Y01851
X03984Y01851
X03975Y01851
X04029Y01849
X04061Y01852
X04088Y01852
X04096Y01847
X04017Y01811
X04017Y01784
X04144Y01705
X04192Y01734
X04202Y01828
X04217Y01884
X04224Y01902
X04256Y01897
X04265Y01902
X04248Y01887
X04268Y01975
X04322Y01975
X04334Y01976
X04147Y01939
X04137Y01931
X04465Y02237
X0424Y02167
X04206Y02148
X042Y02138
X04199Y0213
X04174Y0213
X04166Y02138
X04164Y02113
X04164Y02093
X04165Y02073
X04112Y02083
X04105Y02097
X040935Y021115
X04115Y0212
X041135Y021525
X04104Y02161
X04104Y02168
X04104Y02176
X04056Y02164
X04038Y02178
X04007Y0217
X04009Y0216
X03994Y02168
X03979Y02178
X03982Y02111
X03988Y02111
X03975Y02104
X0397Y02086
X0397Y02057
X0397Y02003
X03974Y01985
X04047Y01989
X04118Y02017
X04112Y02041
X04097Y02046
X04105Y02062
X04051Y02089
X04018Y02088
X04038Y02111
X04021Y02218
X0401995Y0223205
X04143Y02149
X04242Y02038
X04242Y02031
X04242Y02024
X04242Y02017
X04242Y0201
X04242Y02002
X04268Y02047
X03947Y02082
X03949Y02091
X0395Y02117
X03944Y02123
X03923Y02149
X0396Y02157
X03851Y02136
X0384Y02187
X03826Y02187
X0385Y02301
X03867Y02304
X03877Y02284
X03934Y02283
X03947Y01991
T02
X04072Y01731
X04061Y01731
X04051Y01731
X04006Y01836
X04006Y01848
X04005Y02013
X04008Y02066
X04063Y02066
X0406Y02015
T04
X03821496Y01977572
X03808796Y01977572
X0379635Y01977572
X0378375Y01977572
X0377125Y01977572
X0375875Y01977572
T07
X03809982Y01817472
X0378509Y01817472
X0378509Y01838046
X0378509Y01863954
X0378509Y01884528
X03809982Y01884528
T08
X0432Y0233
X042946Y0233
T09
X039465Y01665
X039015Y01665
X038385Y01665
X037935Y01665
X040095Y01665
X040545Y01665
X03993102Y023006
X03970242Y023006
X03981672Y02326
X03993102Y023514
X03970242Y023514
X03947382Y023514
X03924522Y023514
X03901662Y023514
X03913092Y02326
X03935952Y02326
X03958812Y02326
X03947382Y023006
X03924522Y023006
X03901662Y023006
X03890232Y02326
T10
X045342Y0183145
X045342Y0185915
X045342Y0188685
X045342Y0191455
X045058Y019007
X045058Y019284
X045058Y01873
X045058Y018453
X045058Y018176
X045058Y021376
X045058Y021653
X045058Y02193
X045058Y022207
X045058Y022484
X045342Y0223455
X045342Y0220685
X045342Y0217915
X045342Y0215145
T11
X03959Y0169
X03889Y0169
X03851Y0169
X03781Y0169
X03997Y0169
X04067Y0169
X0419375Y01909569
X0441775Y01909569
X04187Y02334962
X03784038Y02156
X03734Y02106
X03709Y02106
X03709Y02206038
X03734Y02206038
X04137Y02385
X04137Y0241
X04237038Y0241
X04237038Y02385
T12
X03755118Y01783436
X0374699Y01851
X03755118Y01918564
T13
X03819874Y02326
T14
X0406981Y02326
T15
X0452Y0174805
X0452Y0199795
X0452Y0206805
X0452Y0231795
T16
X03735Y01679
X0458Y01679
X03735Y02385
X0458Y02385
M30
