%FSLAX44Y44*%
%MOMM*%
G71*
G01*
G75*
G04 Layer_Color=16711935*
%ADD10R,0.4064X2.1082*%
%ADD11R,4.1000X2.1082*%
%ADD12R,1.2000X1.4000*%
%ADD13R,1.4500X0.5500*%
%ADD14R,1.3000X1.5000*%
%ADD15R,1.4000X1.2000*%
%ADD16O,0.2500X1.5500*%
%ADD17O,1.5500X0.2500*%
%ADD18R,0.4064X1.3208*%
%ADD19R,1.8000X1.6000*%
%ADD20R,2.0000X1.1000*%
%ADD21R,2.0000X2.0000*%
%ADD22R,1.1000X2.0000*%
%ADD23R,2.1000X3.2000*%
%ADD24R,2.1000X0.9000*%
%ADD25R,1.0000X0.6000*%
%ADD26O,1.7000X0.6000*%
%ADD27C,0.2000*%
%ADD28C,0.5000*%
%ADD29C,0.4000*%
%ADD30C,1.0000*%
%ADD31C,2.5000*%
%ADD32C,2.0000*%
%ADD33R,1.5748X1.5748*%
%ADD34C,1.5748*%
%ADD35C,2.8448*%
%ADD36O,1.5000X2.2000*%
%ADD37O,2.2000X1.5000*%
%ADD38O,0.8500X2.0000*%
%ADD39O,1.0500X1.2500*%
%ADD40R,1.6900X1.6900*%
%ADD41C,1.6900*%
%ADD42C,4.7600*%
%ADD43O,0.8000X1.4220*%
%ADD44C,1.5000*%
%ADD45O,2.0000X4.5000*%
%ADD46O,4.5000X2.0000*%
%ADD47C,4.8000*%
%ADD48C,0.4000*%
%ADD49C,0.5500*%
%ADD50C,0.2540*%
%ADD51C,0.6000*%
%ADD52C,0.2500*%
%ADD53C,0.2032*%
%ADD54C,0.1000*%
%ADD55C,0.0254*%
%ADD56C,0.1500*%
%ADD57C,0.1270*%
%ADD58R,9.1186X0.3810*%
%ADD59R,0.6350X0.6350*%
%ADD60R,0.6064X2.3082*%
%ADD61R,4.3000X2.3082*%
%ADD62R,1.4000X1.6000*%
%ADD63R,1.6500X0.7500*%
%ADD64R,1.5000X1.7000*%
%ADD65R,1.6000X1.4000*%
%ADD66O,0.4500X1.7500*%
%ADD67O,1.7500X0.4500*%
%ADD68R,0.6064X1.5208*%
%ADD69R,2.0000X1.8000*%
%ADD70R,2.2000X1.3000*%
%ADD71R,2.2000X2.2000*%
%ADD72R,1.3000X2.2000*%
%ADD73R,2.3000X3.4000*%
%ADD74R,2.3000X1.1000*%
%ADD75R,1.2000X0.8000*%
%ADD76O,1.9000X0.8000*%
%ADD77C,2.7000*%
%ADD78C,2.2000*%
%ADD79R,1.7748X1.7748*%
%ADD80C,1.7748*%
%ADD81C,3.0448*%
%ADD82C,0.2000*%
%ADD83O,1.7000X2.4000*%
%ADD84O,2.4000X1.7000*%
%ADD85O,1.0500X2.2000*%
%ADD86O,1.2500X1.4500*%
%ADD87R,1.8900X1.8900*%
%ADD88C,1.8900*%
%ADD89C,4.9600*%
%ADD90O,1.0000X1.6220*%
%ADD91C,1.7000*%
%ADD92O,2.2000X4.7000*%
%ADD93O,4.7000X2.2000*%
%ADD94C,5.0000*%
%ADD95C,0.6000*%
%ADD96C,0.7500*%
D62*
X4004000Y2038000D02*
D03*
X3986000D02*
D03*
X4062000Y2038000D02*
D03*
X4080000D02*
D03*
D65*
X4034000Y2069000D02*
D03*
Y2087000D02*
D03*
X4034000Y2007000D02*
D03*
Y1989000D02*
D03*
D77*
X3889000Y1690000D02*
D03*
X3959000D02*
D03*
X3997000D02*
D03*
X4067000D02*
D03*
X3851000D02*
D03*
X3781000D02*
D03*
D78*
X3901500Y1665000D02*
D03*
X3946500D02*
D03*
X4009500D02*
D03*
X4054500D02*
D03*
X3838500D02*
D03*
X3793500D02*
D03*
D79*
X3785090Y1838046D02*
D03*
D80*
Y1863954D02*
D03*
Y1817472D02*
D03*
Y1884528D02*
D03*
X3809982Y1817472D02*
D03*
Y1884528D02*
D03*
D81*
X3755118Y1783436D02*
D03*
X3746990Y1851000D02*
D03*
X3755118Y1918564D02*
D03*
D82*
X3784038Y2156000D02*
D03*
X3734000Y2106000D02*
D03*
X3709000D02*
D03*
Y2206038D02*
D03*
X3734000D02*
D03*
X4237038Y2385000D02*
D03*
Y2410000D02*
D03*
X4137000D02*
D03*
Y2385000D02*
D03*
X4187000Y2334962D02*
D03*
X4417750Y1909569D02*
D03*
X4193750D02*
D03*
D83*
X3734000Y2156000D02*
D03*
X4137000Y2334962D02*
D03*
X4162000D02*
D03*
X4212146D02*
D03*
X4237038D02*
D03*
D84*
X3784038Y2206038D02*
D03*
Y2181146D02*
D03*
Y2131000D02*
D03*
Y2106000D02*
D03*
X4187000Y2385000D02*
D03*
D85*
X4340560Y2399480D02*
D03*
X4269440D02*
D03*
D86*
X4329130Y2368999D02*
D03*
X4280870D02*
D03*
D87*
X4505800Y1817600D02*
D03*
X4505800Y2137600D02*
D03*
D88*
X4534200Y1831450D02*
D03*
X4505800Y1845300D02*
D03*
X4534200Y1859150D02*
D03*
X4505800Y1873000D02*
D03*
X4534200Y1886850D02*
D03*
X4505800Y1900700D02*
D03*
X4534200Y1914550D02*
D03*
X4505800Y1928400D02*
D03*
X4534200Y2151450D02*
D03*
X4505800Y2165300D02*
D03*
X4534200Y2179150D02*
D03*
X4505800Y2193000D02*
D03*
X4534200Y2206850D02*
D03*
X4505800Y2220700D02*
D03*
X4534200Y2234550D02*
D03*
X4505800Y2248400D02*
D03*
X3993102Y2351400D02*
D03*
X3970242D02*
D03*
X3947382D02*
D03*
X3924522D02*
D03*
X3901662D02*
D03*
X3981672Y2326000D02*
D03*
X3958812D02*
D03*
X3935952D02*
D03*
X3913092D02*
D03*
X3890232D02*
D03*
X3993102Y2300600D02*
D03*
X3970242D02*
D03*
X3947382D02*
D03*
X3924522D02*
D03*
X3901662D02*
D03*
D89*
X4520000Y1997950D02*
D03*
Y1748050D02*
D03*
X4520000Y2317950D02*
D03*
Y2068050D02*
D03*
D90*
X3758750Y1977572D02*
D03*
X3771250D02*
D03*
X3783750D02*
D03*
X3796350D02*
D03*
X3808796D02*
D03*
X3821496D02*
D03*
D91*
X4294600Y2330000D02*
D03*
X4320000D02*
D03*
D92*
X4370000Y2315000D02*
D03*
D93*
X4420000Y2345000D02*
D03*
Y2283000D02*
D03*
D94*
X4069810Y2326000D02*
D03*
X3819874D02*
D03*
D95*
X4147000Y1939000D02*
D03*
X4009000Y2160000D02*
D03*
X3960000Y2157000D02*
D03*
X4017000Y1784000D02*
D03*
Y1811000D02*
D03*
X4115000Y2120000D02*
D03*
X4224000Y1902000D02*
D03*
X3947000Y2082000D02*
D03*
X3970000Y2003000D02*
D03*
X3947000Y1991000D02*
D03*
X4192000Y1734000D02*
D03*
X4102000Y1949000D02*
D03*
X4095000Y1947000D02*
D03*
X4202000Y1828000D02*
D03*
X4110000Y1949000D02*
D03*
X3982000Y2111000D02*
D03*
X3851000Y2136000D02*
D03*
X4217000Y1884000D02*
D03*
X4137000Y1931000D02*
D03*
X4322000Y1975000D02*
D03*
X4144000Y1705000D02*
D03*
X4118000Y2017000D02*
D03*
X4268000Y2047000D02*
D03*
X4200000Y2138000D02*
D03*
X4166000D02*
D03*
X4056000Y2164000D02*
D03*
X4038000Y2178000D02*
D03*
X4268000Y1975000D02*
D03*
X4199000Y2130000D02*
D03*
X4174000D02*
D03*
X4242000Y2002000D02*
D03*
Y2010000D02*
D03*
Y2017000D02*
D03*
Y2024000D02*
D03*
Y2031000D02*
D03*
Y2038000D02*
D03*
X4165000Y2073000D02*
D03*
X4164000Y2093000D02*
D03*
Y2113000D02*
D03*
X4465000Y2237000D02*
D03*
X4143000Y2149000D02*
D03*
X4104000Y2161000D02*
D03*
Y2168000D02*
D03*
Y2176000D02*
D03*
X4113500Y2152500D02*
D03*
X4206000Y2148000D02*
D03*
X4240000Y2167000D02*
D03*
X4047000Y1989000D02*
D03*
X4112000Y2041000D02*
D03*
X4248000Y1887000D02*
D03*
X3974000Y1985000D02*
D03*
X3949000Y2091000D02*
D03*
X4256000Y1897000D02*
D03*
X3944000Y2123000D02*
D03*
X3950000Y2117000D02*
D03*
X4265000Y1902000D02*
D03*
X4019950Y2232050D02*
D03*
X4021000Y2218000D02*
D03*
X4007000Y2170000D02*
D03*
X3979000Y2178000D02*
D03*
X3994000Y2168000D02*
D03*
X3867000Y2304000D02*
D03*
X3840000Y2187000D02*
D03*
X3850000Y2301000D02*
D03*
X3826000Y2187000D02*
D03*
X3934000Y2283000D02*
D03*
X3877000Y2284000D02*
D03*
X3918000Y1931000D02*
D03*
X3821000Y1937000D02*
D03*
X3934000Y1927000D02*
D03*
X3800000Y1946000D02*
D03*
X3954000Y1955000D02*
D03*
X3945000Y1952000D02*
D03*
X3975000Y1851000D02*
D03*
Y1948000D02*
D03*
X3984000Y1851000D02*
D03*
Y1948000D02*
D03*
X3993000Y1851000D02*
D03*
Y1947000D02*
D03*
X4029000Y1849000D02*
D03*
Y1948000D02*
D03*
X4061000Y1852000D02*
D03*
X4053000Y1947000D02*
D03*
X4088000Y1852000D02*
D03*
X4088478Y1947000D02*
D03*
X4096000Y1847000D02*
D03*
X4334000Y1976000D02*
D03*
X4093500Y2111500D02*
D03*
X4038000Y2111000D02*
D03*
X3988000D02*
D03*
X3975000Y2104000D02*
D03*
X3970000Y2057000D02*
D03*
X4008000Y1976000D02*
D03*
X4023000Y1975000D02*
D03*
X4044000Y1976000D02*
D03*
X4073000Y1975000D02*
D03*
X4117000D02*
D03*
X4097000Y2046000D02*
D03*
X4105000Y2062000D02*
D03*
Y2097000D02*
D03*
X4112000Y2083000D02*
D03*
X3970000Y2086000D02*
D03*
X4018000Y2088000D02*
D03*
X4051000Y2089000D02*
D03*
X3923000Y2149000D02*
D03*
D96*
X4072000Y1731000D02*
D03*
X4061000D02*
D03*
X4051000D02*
D03*
X4006000Y1848000D02*
D03*
Y1836000D02*
D03*
X4008000Y2066000D02*
D03*
X4063000D02*
D03*
X4060000Y2015000D02*
D03*
X4005000Y2013000D02*
D03*
M02*
